<svg width="128" height="128" viewBox="0 0 128 128" fill="none" xmlns="http://www.w3.org/2000/svg">
<g clip-path="url(#clip0_6_2)">
<path d="M72.0854 0.430595C70.1956 -0.383671 68.0073 -0.0247651 66.49 1.35201L1.67465 60.2322C0.60584 61.2019 0 62.5662 0 64.0001C0 65.434 0.60584 66.7983 1.67465 67.768L66.49 126.648C67.4648 127.534 68.7253 128 70.0002 128C70.7037 128 71.4127 127.859 72.0854 127.57C73.9662 126.754 75.1851 124.912 75.1851 122.88V87.0392H122.815C125.678 87.0392 128 84.7446 128 81.9196V46.0804C128 43.2536 125.676 40.9608 122.815 40.9608H75.1851V5.11979C75.1851 3.08765 73.9662 1.24673 72.0854 0.430595Z" fill="white"/>
</g>
<defs>
<clipPath id="clip0_6_2">
<rect width="128" height="128" fill="white"/>
</clipPath>
</defs>
</svg>
