<svg width="128" height="128" viewBox="0 0 128 128" fill="none" xmlns="http://www.w3.org/2000/svg">
<path d="M64 0C28.7243 0 0 28.7259 0 64C0 99.2741 28.7259 128 64 128C99.2741 128 128 99.2741 128 64C128 28.7259 99.2741 0 64 0ZM91.6837 66.2325C91.2373 66.9762 90.7908 67.4239 90.0459 67.8703L51.3483 90.1956C50.6046 90.642 49.8597 90.7912 49.1161 90.7912C46.5855 90.7912 44.6507 88.8563 44.6507 86.3258V41.6746C44.6507 39.144 46.5856 37.2092 49.1161 37.2092C49.8597 37.2092 50.6046 37.3584 51.3483 37.8049L90.0459 60.1301C92.1301 61.3215 92.8738 64.1494 91.6837 66.2321V66.2325Z" fill="#2395E0"/>
</svg>
